# xmcd
#
# Track frame offsets: 
#        150
#        20099
#        37886
#        53532
#        78778
#        97792
#        122665
#        154898
#
# Disc length: 2281 seconds
#
# Revision: 2
# Processed by: cddbd v1.5.2PL0 Copyright (c) Steve Scherf et al.
# Submitted via: ExactAudioCopy v0.99pb4
#
DISCID=4f08e708
DTITLE=Neil Young - Le Noise
DYEAR=2010
DGENRE=Rock
TTITLE0=Walk with Me
TTITLE1=Sign of Love
TTITLE2=Someone`s Going to Rescue You
TTITLE3=Love and War
TTITLE4=It's an Angry World
TTITLE5=The Hitchhiker
TTITLE6=Peaceful Valley Boulevard
TTITLE7=Rumblin'
EXTD=
EXTT0=
EXTT1=
EXTT2=
EXTT3=
EXTT4=
EXTT5=
EXTT6=
EXTT7=
PLAYORDER=
